# xmcd
#
# Track frame offsets:
# 150
# 17603
# 32117
# 49488
# 65135
# 80533
# 100192
# 120633
# 137369
# 152308
# 170813
#
# Disc length: 2462 seconds
#
#
# Revision: 0
# Processed by: cddbd v1.5.1PL0 Copyright (c) Steve Scherf et al.
# Submitted via: FreeRIP 2.942 
#
DISCID=8d099c0b
DTITLE=Joe Diffie - Honky Tonk Attitude - Honky Tonk Attitude
DYEAR=1993
DGENRE=Country
TTITLE0=Honky Tonk Attitude
TTITLE1=I'm Not Through Losin' You
TTITLE2=Prop Me Up Beside The Jukebox (If I Die)
TTITLE3=If I Had Any Pride Left At All
TTITLE4=I Can Walk The Line
TTITLE5=Somewhere Under The Rainbow
TTITLE6=John Deere Green
TTITLE7=In My Own Backyard
TTITLE8=Here Comes That Train
TTITLE9=And That Was The Easy Part
TTITLE10=Cold Budweiser And A Sweet Tater
EXTD=
EXTT0=
EXTT1=
EXTT2=
EXTT3=
EXTT4=
EXTT5=
EXTT6=
EXTT7=
EXTT8=
EXTT9=
EXTT10=
PLAYORDER=
